<svg xmlns="http://www.w3.org/2000/svg" viewBox="0 0 448 512" fill="#25D366">
  <path d="M380.9 97.1C339-4 208.3-30.8 120.9 55.3 38.1 135.6 33.1 264.2 102.7 355.3L63.1 457.1c-4.1 10.7 7.5 20.1 17.1 13.9l96.6-55.7c48.7 27.9 108.4 29.8 160.3 5.1 116.3-55.2 130.1-211.1 43.8-323.3zM224 403c-36.1 0-70.3-11.8-98.1-31.6l-68.2 39.3 18.3-50.6c-30-33.7-47.4-77.4-47.4-124.3 0-105.9 86.1-192 192-192 105.9 0 192 86.1 192 192 0 105.9-86.1 192-192 192zm101.5-138.3c-5.3-2.6-31.3-15.4-36.2-17.2s-8.3-2.6-11.8 2.6-13.5 17.2-16.6 20.8c-3 3.6-6.1 4-11.4 1.3-31.3-15.6-51.8-28-72.6-63.4-5.5-9.5 5.5-8.8 15.7-29.2 1.8-3.6.9-6.6-.4-9.2s-11.8-28.5-16.1-39c-4.3-10.3-8.8-8.9-11.8-9.1-3-.2-6.4-.2-9.8-.2s-9.2 1.3-14 6.6c-4.8 5.3-18.4 18-18.4 43.8s18.9 50.8 21.5 54.4c2.6 3.6 37.3 56.9 90.6 79.8 53.3 22.9 53.3 15.3 62.8 14.4s31.3-12.7 35.8-25.1c4.5-12.4 4.5-23 .3-25.6z"/>
</svg>

